name analog
datacolumns 19
datarows 23
range 0.0 0.011
endheader
time	ground_force_vx	ground_force_vy	ground_force_vz	ground_force_px	ground_force_py	ground_force_pz	l_ground_force_vx	l_ground_force_vy	l_ground_force_vz	l_ground_force_px	l_ground_force_py	l_ground_force_pz	ground_torque_x	ground_torque_y	ground_torque_z	l_ground_torque_x	l_ground_torque_y	l_ground_torque_z
0.0	-0.0	-0.0	-0.0	-3.2779958248138428	46.01406097412109	-388.4257507324219	4.597329616546631	-46.61309814453125	-407.09027099609375	-0.0	-0.0	-0.0	-0.0	-0.0	-0.0	84324.4375	-38628.03125	2804.28662109375
0.0005	-0.0	-0.0	-0.0	-3.385519504547119	46.19192886352539	-389.8574523925781	4.25811767578125	-46.20246505737305	-406.4124755859375	-0.0	-0.0	-0.0	-0.0	-0.0	-0.0	83990.390625	-38811.2265625	2772.847900390625
0.001	-0.0	-0.0	-0.0	-2.9439468383789062	45.911014556884766	-390.2287902832031	4.49883508682251	-46.61866760253906	-407.4599609375	-0.0	-0.0	-0.0	-0.0	-0.0	-0.0	83955.5703125	-38726.140625	2496.7353515625
0.0015	-0.0	-0.0	-0.0	-3.2788774967193604	46.280574798583984	-390.4782104492188	4.435539245605469	-46.04568099975586	-407.4203186035156	-0.0	-0.0	-0.0	-0.0	-0.0	-0.0	84589.9296875	-38975.671875	2636.609619140625
0.002	-0.0	-0.0	-0.0	-2.854736328125	46.271575927734375	-390.31494140625	4.529205322265625	-46.619049072265625	-407.7115783691406	-0.0	-0.0	-0.0	-0.0	-0.0	-0.0	84439.1875	-38576.21484375	2690.8076171875
0.0025	-0.0	-0.0	-0.0	-3.636461019515991	46.594051361083984	-390.1632690429688	4.509586811065674	-46.27569580078125	-407.1684875488281	-0.0	-0.0	-0.0	-0.0	-0.0	-0.0	84379.6171875	-38800.3359375	2661.216796875
0.003	-0.0	-0.0	-0.0	-2.888221263885498	46.42858123779297	-389.171142578125	4.603281497955322	-46.44757080078125	-406.81878662109375	-0.0	-0.0	-0.0	-0.0	-0.0	-0.0	84264.046875	-38659.8203125	2606.7666015625
0.0035	-0.0	-0.0	-0.0	-3.4709994792938232	46.69612884521485	-388.5141906738281	4.099734783172607	-46.0345573425293	-407.07330322265625	-0.0	-0.0	-0.0	-0.0	-0.0	-0.0	84230.640625	-38440.69921875	2632.9140625
0.004	-0.0	-0.0	-0.0	-3.150630235671997	46.35184097290039	-390.938232421875	4.514865398406982	-46.61049270629883	-406.7062377929688	-0.0	-0.0	-0.0	-0.0	-0.0	-0.0	84182.28125	-38512.24609375	2490.99658203125
0.0045000000000000005	-0.0	-0.0	-0.0	-3.378123998641968	46.432987213134766	-389.2356262207031	4.248889446258545	-46.19224548339844	-406.725341796875	-0.0	-0.0	-0.0	-0.0	-0.0	-0.0	84176.6328125	-38591.0703125	2826.693603515625
0.005	-0.0	-0.0	-0.0	-3.1458234786987305	46.1851692199707	-389.6658325195313	4.351393222808838	-46.624759674072266	-406.9850158691406	-0.0	-0.0	-0.0	-0.0	-0.0	-0.0	83950.25	-38456.8828125	2629.8251953125
0.0055	-0.0	-0.0	-0.0	-3.133952617645264	46.96786880493164	-388.5437927246094	4.342310905456543	-46.02909469604492	-405.2939147949219	-0.0	-0.0	-0.0	-0.0	-0.0	-0.0	83707.84375	-38298.11328125	2718.97802734375
0.006	-0.0	-0.0	-0.0	-2.974196195602417	46.76702117919922	-390.2189331054688	4.608523368835449	-46.34238052368164	-404.33502197265625	-0.0	-0.0	-0.0	-0.0	-0.0	-0.0	84001.703125	-38452.0703125	2628.63818359375
0.006500000000000001	-0.0	-0.0	-0.0	-3.375145673751831	46.44436264038086	-388.9099426269531	4.444279670715332	-45.57834243774414	-405.2962646484375	-0.0	-0.0	-0.0	-0.0	-0.0	-0.0	83695.8125	-38565.6640625	2539.768798828125
0.007	-0.0	-0.0	-0.0	-2.9732699394226074	46.00959777832031	-388.144775390625	4.435539245605469	-46.19654846191406	-407.3068542480469	-0.0	-0.0	-0.0	-0.0	-0.0	-0.0	83787.609375	-38399.65234375	2597.519775390625
0.0075	-0.0	-0.0	-0.0	-3.3864145278930664	46.265846252441406	-387.0993957519531	4.097665786743164	-45.78020095825195	-404.3509521484375	-0.0	-0.0	-0.0	-0.0	-0.0	-0.0	83759.2109375	-38313.76171875	2600.302978515625
0.008	-0.0	-0.0	-0.0	-3.236335277557373	46.41927337646485	-387.7915649414063	4.663920879364014	-45.84313583374024	-404.3670959472656	-0.0	-0.0	-0.0	-0.0	-0.0	-0.0	84155.6484375	-38323.9296875	2541.37744140625
0.0085	-0.0	-0.0	-0.0	-3.225405216217041	46.26904296875	-387.1262512207031	3.9115047454833984	-45.843055725097656	-405.2840576171875	-0.0	-0.0	-0.0	-0.0	-0.0	-0.0	84273.015625	-38246.25390625	2449.124755859375
0.009000000000000001	-0.0	-0.0	-0.0	-3.554868459701538	46.34780883789063	-388.4979248046875	4.318501949310303	-45.57398986816406	-404.73046875	-0.0	-0.0	-0.0	-0.0	-0.0	-0.0	84008.984375	-38179.03515625	2340.367431640625
0.0095	-0.0	-0.0	-0.0	-3.389999389648437	46.265357971191406	-387.3987426757813	4.003982067108154	-45.90736770629883	-403.6507263183594	-0.0	-0.0	-0.0	-0.0	-0.0	-0.0	84275.84375	-37900.47265625	2304.982177734375
0.01	-0.0	-0.0	-0.0	-4.173336505889893	45.98151779174805	-386.0386047363281	4.080696105957031	-45.50518035888672	-403.3009948730469	-0.0	-0.0	-0.0	-0.0	-0.0	-0.0	84076.0234375	-37903.91796875	2337.423828125
0.0105	-0.0	-0.0	-0.0	-3.740458488464356	45.91172790527344	-385.6851196289063	3.7528114318847656	-45.58165740966797	-405.9572448730469	-0.0	-0.0	-0.0	-0.0	-0.0	-0.0	83694.5390625	-38029.9140625	2335.83837890625
0.011	-0.0	-0.0	-0.0	-3.571564197540283	45.73018264770508	-386.4286193847656	3.8918633460998535	-45.23206329345703	-402.9508972167969	-0.0	-0.0	-0.0	-0.0	-0.0	-0.0	83713.421875	-37855.8984375	2416.0986328125
